<svg xmlns="http://www.w3.org/2000/svg" viewBox="0 0 1200 675" width="1200" height="675" role="img" aria-label="Article cover">
  <defs>
    <linearGradient id="g" x1="0" y1="0" x2="1" y2="1">
      <stop offset="0%" stop-color="hsl(315 72% 46%)"/>
      <stop offset="100%" stop-color="hsl(24 68% 32%)"/>
    </linearGradient>
    <radialGradient id="glow" cx="78%" cy="22%" r="60%">
      <stop offset="0%" stop-color="white" stop-opacity="0.28"/>
      <stop offset="100%" stop-color="white" stop-opacity="0"/>
    </radialGradient>
  </defs>
  <rect width="1200" height="675" fill="url(#g)"/>
  <rect width="1200" height="675" fill="url(#glow)"/>
  <line x1="1193" y1="210" x2="624" y2="31" stroke="white" stroke-opacity="0.16" stroke-width="1"/><line x1="476" y1="392" x2="662" y2="340" stroke="white" stroke-opacity="0.16" stroke-width="1"/><line x1="365" y1="424" x2="566" y2="236" stroke="white" stroke-opacity="0.16" stroke-width="1"/><line x1="703" y1="34" x2="566" y2="236" stroke="white" stroke-opacity="0.16" stroke-width="1"/><line x1="1024" y1="566" x2="566" y2="236" stroke="white" stroke-opacity="0.16" stroke-width="1"/><line x1="1187" y1="522" x2="876" y2="209" stroke="white" stroke-opacity="0.16" stroke-width="1"/><line x1="624" y1="31" x2="107" y2="447" stroke="white" stroke-opacity="0.16" stroke-width="1"/><line x1="781" y1="625" x2="107" y2="447" stroke="white" stroke-opacity="0.16" stroke-width="1"/><line x1="662" y1="340" x2="145" y2="66" stroke="white" stroke-opacity="0.16" stroke-width="1"/><line x1="566" y1="236" x2="1137" y2="283" stroke="white" stroke-opacity="0.16" stroke-width="1"/><line x1="107" y1="447" x2="300" y2="191" stroke="white" stroke-opacity="0.16" stroke-width="1"/><line x1="876" y1="209" x2="145" y2="66" stroke="white" stroke-opacity="0.16" stroke-width="1"/><line x1="1133" y1="596" x2="300" y2="191" stroke="white" stroke-opacity="0.16" stroke-width="1"/><line x1="1137" y1="283" x2="151" y2="344" stroke="white" stroke-opacity="0.16" stroke-width="1"/><line x1="79" y1="305" x2="681" y2="523" stroke="white" stroke-opacity="0.16" stroke-width="1"/><line x1="145" y1="66" x2="824" y2="525" stroke="white" stroke-opacity="0.16" stroke-width="1"/><line x1="300" y1="191" x2="478" y2="649" stroke="white" stroke-opacity="0.16" stroke-width="1"/><line x1="151" y1="344" x2="765" y2="206" stroke="white" stroke-opacity="0.16" stroke-width="1"/><circle cx="1193" cy="210" r="4" fill="white" fill-opacity="0.49"/><circle cx="476" cy="392" r="3" fill="white" fill-opacity="0.55"/><circle cx="365" cy="424" r="5" fill="white" fill-opacity="0.51"/><circle cx="703" cy="34" r="2" fill="white" fill-opacity="0.49"/><circle cx="1024" cy="566" r="3" fill="white" fill-opacity="0.49"/><circle cx="1187" cy="522" r="2" fill="white" fill-opacity="0.55"/><circle cx="624" cy="31" r="6" fill="white" fill-opacity="0.26"/><circle cx="781" cy="625" r="4" fill="white" fill-opacity="0.52"/><circle cx="662" cy="340" r="5" fill="white" fill-opacity="0.41"/><circle cx="566" cy="236" r="4" fill="white" fill-opacity="0.39"/><circle cx="107" cy="447" r="5" fill="white" fill-opacity="0.51"/><circle cx="876" cy="209" r="4" fill="white" fill-opacity="0.28"/><circle cx="1133" cy="596" r="4" fill="white" fill-opacity="0.43"/><circle cx="1137" cy="283" r="3" fill="white" fill-opacity="0.41"/><circle cx="79" cy="305" r="4" fill="white" fill-opacity="0.38"/><circle cx="145" cy="66" r="3" fill="white" fill-opacity="0.57"/><circle cx="300" cy="191" r="5" fill="white" fill-opacity="0.40"/><circle cx="151" cy="344" r="3" fill="white" fill-opacity="0.19"/><circle cx="124" cy="255" r="3" fill="white" fill-opacity="0.28"/><circle cx="681" cy="523" r="5" fill="white" fill-opacity="0.50"/><circle cx="824" cy="525" r="5" fill="white" fill-opacity="0.41"/><circle cx="478" cy="649" r="3" fill="white" fill-opacity="0.30"/><circle cx="765" cy="206" r="4" fill="white" fill-opacity="0.34"/><circle cx="518" cy="567" r="4" fill="white" fill-opacity="0.25"/><circle cx="637" cy="165" r="2" fill="white" fill-opacity="0.24"/><circle cx="503" cy="261" r="4" fill="white" fill-opacity="0.34"/><rect x="80" y="517" width="26" height="48" rx="6" fill="white" fill-opacity="0.14"/><rect x="126" y="438" width="26" height="127" rx="6" fill="white" fill-opacity="0.21"/><rect x="172" y="453" width="26" height="112" rx="6" fill="white" fill-opacity="0.28"/><rect x="218" y="387" width="26" height="178" rx="6" fill="white" fill-opacity="0.35"/><rect x="264" y="412" width="26" height="153" rx="6" fill="white" fill-opacity="0.42"/>
  <text x="80" y="613" font-family="system-ui, sans-serif" font-size="30" font-weight="700" fill="white" fill-opacity="0.92">HYASCKA</text>
</svg>