<svg xmlns="http://www.w3.org/2000/svg" viewBox="0 0 1200 675" width="1200" height="675" role="img" aria-label="Article cover">
  <defs>
    <linearGradient id="g" x1="0" y1="0" x2="1" y2="1">
      <stop offset="0%" stop-color="hsl(188 72% 46%)"/>
      <stop offset="100%" stop-color="hsl(242 68% 32%)"/>
    </linearGradient>
    <radialGradient id="glow" cx="78%" cy="22%" r="60%">
      <stop offset="0%" stop-color="white" stop-opacity="0.28"/>
      <stop offset="100%" stop-color="white" stop-opacity="0"/>
    </radialGradient>
  </defs>
  <rect width="1200" height="675" fill="url(#g)"/>
  <rect width="1200" height="675" fill="url(#glow)"/>
  <line x1="299" y1="316" x2="230" y2="188" stroke="white" stroke-opacity="0.16" stroke-width="1"/><line x1="182" y1="260" x2="694" y2="483" stroke="white" stroke-opacity="0.16" stroke-width="1"/><line x1="453" y1="415" x2="221" y2="247" stroke="white" stroke-opacity="0.16" stroke-width="1"/><line x1="654" y1="581" x2="221" y2="247" stroke="white" stroke-opacity="0.16" stroke-width="1"/><line x1="184" y1="564" x2="1041" y2="270" stroke="white" stroke-opacity="0.16" stroke-width="1"/><line x1="1108" y1="394" x2="847" y2="251" stroke="white" stroke-opacity="0.16" stroke-width="1"/><line x1="694" y1="483" x2="187" y2="402" stroke="white" stroke-opacity="0.16" stroke-width="1"/><line x1="230" y1="188" x2="847" y2="251" stroke="white" stroke-opacity="0.16" stroke-width="1"/><line x1="600" y1="536" x2="111" y2="236" stroke="white" stroke-opacity="0.16" stroke-width="1"/><line x1="221" y1="247" x2="111" y2="236" stroke="white" stroke-opacity="0.16" stroke-width="1"/><line x1="847" y1="251" x2="777" y2="380" stroke="white" stroke-opacity="0.16" stroke-width="1"/><line x1="1041" y1="270" x2="346" y2="32" stroke="white" stroke-opacity="0.16" stroke-width="1"/><line x1="111" y1="236" x2="118" y2="180" stroke="white" stroke-opacity="0.16" stroke-width="1"/><line x1="187" y1="402" x2="523" y2="152" stroke="white" stroke-opacity="0.16" stroke-width="1"/><line x1="346" y1="32" x2="804" y2="294" stroke="white" stroke-opacity="0.16" stroke-width="1"/><line x1="172" y1="154" x2="519" y2="459" stroke="white" stroke-opacity="0.16" stroke-width="1"/><line x1="777" y1="380" x2="523" y2="152" stroke="white" stroke-opacity="0.16" stroke-width="1"/><line x1="118" y1="180" x2="519" y2="459" stroke="white" stroke-opacity="0.16" stroke-width="1"/><circle cx="299" cy="316" r="2" fill="white" fill-opacity="0.42"/><circle cx="182" cy="260" r="3" fill="white" fill-opacity="0.37"/><circle cx="453" cy="415" r="6" fill="white" fill-opacity="0.40"/><circle cx="654" cy="581" r="4" fill="white" fill-opacity="0.50"/><circle cx="184" cy="564" r="5" fill="white" fill-opacity="0.35"/><circle cx="1108" cy="394" r="4" fill="white" fill-opacity="0.55"/><circle cx="694" cy="483" r="3" fill="white" fill-opacity="0.20"/><circle cx="230" cy="188" r="4" fill="white" fill-opacity="0.43"/><circle cx="600" cy="536" r="4" fill="white" fill-opacity="0.24"/><circle cx="221" cy="247" r="2" fill="white" fill-opacity="0.40"/><circle cx="847" cy="251" r="3" fill="white" fill-opacity="0.58"/><circle cx="1041" cy="270" r="5" fill="white" fill-opacity="0.31"/><circle cx="111" cy="236" r="6" fill="white" fill-opacity="0.33"/><circle cx="187" cy="402" r="4" fill="white" fill-opacity="0.34"/><circle cx="346" cy="32" r="4" fill="white" fill-opacity="0.55"/><circle cx="172" cy="154" r="5" fill="white" fill-opacity="0.19"/><circle cx="777" cy="380" r="4" fill="white" fill-opacity="0.39"/><circle cx="118" cy="180" r="3" fill="white" fill-opacity="0.55"/><circle cx="804" cy="294" r="2" fill="white" fill-opacity="0.35"/><circle cx="523" cy="152" r="6" fill="white" fill-opacity="0.44"/><circle cx="519" cy="459" r="5" fill="white" fill-opacity="0.45"/><circle cx="93" cy="359" r="3" fill="white" fill-opacity="0.38"/><circle cx="1010" cy="641" r="5" fill="white" fill-opacity="0.19"/><circle cx="938" cy="129" r="5" fill="white" fill-opacity="0.22"/><circle cx="355" cy="629" r="3" fill="white" fill-opacity="0.56"/><circle cx="193" cy="567" r="3" fill="white" fill-opacity="0.56"/><rect x="80" y="386" width="26" height="179" rx="6" fill="white" fill-opacity="0.14"/><rect x="126" y="469" width="26" height="96" rx="6" fill="white" fill-opacity="0.21"/><rect x="172" y="444" width="26" height="121" rx="6" fill="white" fill-opacity="0.28"/><rect x="218" y="448" width="26" height="117" rx="6" fill="white" fill-opacity="0.35"/><rect x="264" y="472" width="26" height="93" rx="6" fill="white" fill-opacity="0.42"/>
  <text x="80" y="613" font-family="system-ui, sans-serif" font-size="30" font-weight="700" fill="white" fill-opacity="0.92">HYASCKA</text>
</svg>