<svg xmlns="http://www.w3.org/2000/svg" viewBox="0 0 1200 675" width="1200" height="675" role="img" aria-label="Article cover">
  <defs>
    <linearGradient id="g" x1="0" y1="0" x2="1" y2="1">
      <stop offset="0%" stop-color="hsl(45 72% 46%)"/>
      <stop offset="100%" stop-color="hsl(95 68% 32%)"/>
    </linearGradient>
    <radialGradient id="glow" cx="78%" cy="22%" r="60%">
      <stop offset="0%" stop-color="white" stop-opacity="0.28"/>
      <stop offset="100%" stop-color="white" stop-opacity="0"/>
    </radialGradient>
  </defs>
  <rect width="1200" height="675" fill="url(#g)"/>
  <rect width="1200" height="675" fill="url(#glow)"/>
  <line x1="153" y1="133" x2="560" y2="324" stroke="white" stroke-opacity="0.16" stroke-width="1"/><line x1="305" y1="138" x2="823" y2="629" stroke="white" stroke-opacity="0.16" stroke-width="1"/><line x1="382" y1="618" x2="1095" y2="0" stroke="white" stroke-opacity="0.16" stroke-width="1"/><line x1="560" y1="324" x2="898" y2="219" stroke="white" stroke-opacity="0.16" stroke-width="1"/><line x1="823" y1="629" x2="824" y2="569" stroke="white" stroke-opacity="0.16" stroke-width="1"/><line x1="763" y1="127" x2="496" y2="74" stroke="white" stroke-opacity="0.16" stroke-width="1"/><line x1="1095" y1="0" x2="633" y2="627" stroke="white" stroke-opacity="0.16" stroke-width="1"/><line x1="898" y1="219" x2="254" y2="216" stroke="white" stroke-opacity="0.16" stroke-width="1"/><line x1="496" y1="74" x2="828" y2="537" stroke="white" stroke-opacity="0.16" stroke-width="1"/><line x1="567" y1="307" x2="828" y2="537" stroke="white" stroke-opacity="0.16" stroke-width="1"/><line x1="824" y1="569" x2="202" y2="442" stroke="white" stroke-opacity="0.16" stroke-width="1"/><line x1="254" y1="216" x2="771" y2="278" stroke="white" stroke-opacity="0.16" stroke-width="1"/><line x1="828" y1="537" x2="202" y2="442" stroke="white" stroke-opacity="0.16" stroke-width="1"/><line x1="633" y1="627" x2="174" y2="140" stroke="white" stroke-opacity="0.16" stroke-width="1"/><line x1="771" y1="278" x2="145" y2="570" stroke="white" stroke-opacity="0.16" stroke-width="1"/><line x1="202" y1="442" x2="550" y2="538" stroke="white" stroke-opacity="0.16" stroke-width="1"/><line x1="1187" y1="546" x2="47" y2="123" stroke="white" stroke-opacity="0.16" stroke-width="1"/><line x1="145" y1="570" x2="1093" y2="513" stroke="white" stroke-opacity="0.16" stroke-width="1"/><circle cx="153" cy="133" r="4" fill="white" fill-opacity="0.37"/><circle cx="305" cy="138" r="5" fill="white" fill-opacity="0.42"/><circle cx="382" cy="618" r="4" fill="white" fill-opacity="0.32"/><circle cx="560" cy="324" r="3" fill="white" fill-opacity="0.42"/><circle cx="823" cy="629" r="2" fill="white" fill-opacity="0.55"/><circle cx="763" cy="127" r="5" fill="white" fill-opacity="0.45"/><circle cx="1095" cy="0" r="5" fill="white" fill-opacity="0.43"/><circle cx="898" cy="219" r="5" fill="white" fill-opacity="0.47"/><circle cx="496" cy="74" r="4" fill="white" fill-opacity="0.44"/><circle cx="567" cy="307" r="4" fill="white" fill-opacity="0.37"/><circle cx="824" cy="569" r="5" fill="white" fill-opacity="0.43"/><circle cx="254" cy="216" r="5" fill="white" fill-opacity="0.45"/><circle cx="828" cy="537" r="5" fill="white" fill-opacity="0.49"/><circle cx="633" cy="627" r="4" fill="white" fill-opacity="0.49"/><circle cx="771" cy="278" r="6" fill="white" fill-opacity="0.22"/><circle cx="202" cy="442" r="5" fill="white" fill-opacity="0.35"/><circle cx="1187" cy="546" r="3" fill="white" fill-opacity="0.49"/><circle cx="145" cy="570" r="2" fill="white" fill-opacity="0.40"/><circle cx="550" cy="538" r="5" fill="white" fill-opacity="0.25"/><circle cx="217" cy="100" r="4" fill="white" fill-opacity="0.42"/><circle cx="174" cy="140" r="5" fill="white" fill-opacity="0.24"/><circle cx="1063" cy="111" r="5" fill="white" fill-opacity="0.34"/><circle cx="47" cy="123" r="6" fill="white" fill-opacity="0.35"/><circle cx="1093" cy="513" r="4" fill="white" fill-opacity="0.38"/><circle cx="429" cy="628" r="2" fill="white" fill-opacity="0.35"/><circle cx="901" cy="347" r="3" fill="white" fill-opacity="0.35"/><rect x="80" y="447" width="26" height="118" rx="6" fill="white" fill-opacity="0.14"/><rect x="126" y="392" width="26" height="173" rx="6" fill="white" fill-opacity="0.21"/><rect x="172" y="392" width="26" height="173" rx="6" fill="white" fill-opacity="0.28"/><rect x="218" y="378" width="26" height="187" rx="6" fill="white" fill-opacity="0.35"/><rect x="264" y="468" width="26" height="97" rx="6" fill="white" fill-opacity="0.42"/>
  <text x="80" y="613" font-family="system-ui, sans-serif" font-size="30" font-weight="700" fill="white" fill-opacity="0.92">HYASCKA</text>
</svg>