<svg xmlns="http://www.w3.org/2000/svg" viewBox="0 0 1200 675" width="1200" height="675" role="img" aria-label="Article cover">
  <defs>
    <linearGradient id="g" x1="0" y1="0" x2="1" y2="1">
      <stop offset="0%" stop-color="hsl(269 72% 46%)"/>
      <stop offset="100%" stop-color="hsl(307 68% 32%)"/>
    </linearGradient>
    <radialGradient id="glow" cx="78%" cy="22%" r="60%">
      <stop offset="0%" stop-color="white" stop-opacity="0.28"/>
      <stop offset="100%" stop-color="white" stop-opacity="0"/>
    </radialGradient>
  </defs>
  <rect width="1200" height="675" fill="url(#g)"/>
  <rect width="1200" height="675" fill="url(#glow)"/>
  <line x1="267" y1="27" x2="910" y2="579" stroke="white" stroke-opacity="0.16" stroke-width="1"/><line x1="593" y1="257" x2="910" y2="579" stroke="white" stroke-opacity="0.16" stroke-width="1"/><line x1="212" y1="185" x2="862" y2="499" stroke="white" stroke-opacity="0.16" stroke-width="1"/><line x1="442" y1="188" x2="602" y2="173" stroke="white" stroke-opacity="0.16" stroke-width="1"/><line x1="910" y1="579" x2="602" y2="265" stroke="white" stroke-opacity="0.16" stroke-width="1"/><line x1="862" y1="499" x2="501" y2="403" stroke="white" stroke-opacity="0.16" stroke-width="1"/><line x1="546" y1="566" x2="501" y2="403" stroke="white" stroke-opacity="0.16" stroke-width="1"/><line x1="1162" y1="283" x2="501" y2="403" stroke="white" stroke-opacity="0.16" stroke-width="1"/><line x1="602" y1="173" x2="62" y2="507" stroke="white" stroke-opacity="0.16" stroke-width="1"/><line x1="602" y1="265" x2="651" y2="616" stroke="white" stroke-opacity="0.16" stroke-width="1"/><line x1="1059" y1="482" x2="62" y2="507" stroke="white" stroke-opacity="0.16" stroke-width="1"/><line x1="995" y1="423" x2="642" y2="337" stroke="white" stroke-opacity="0.16" stroke-width="1"/><line x1="501" y1="403" x2="280" y2="382" stroke="white" stroke-opacity="0.16" stroke-width="1"/><line x1="62" y1="507" x2="39" y2="95" stroke="white" stroke-opacity="0.16" stroke-width="1"/><line x1="651" y1="616" x2="39" y2="95" stroke="white" stroke-opacity="0.16" stroke-width="1"/><line x1="642" y1="337" x2="39" y2="95" stroke="white" stroke-opacity="0.16" stroke-width="1"/><line x1="446" y1="271" x2="39" y2="95" stroke="white" stroke-opacity="0.16" stroke-width="1"/><line x1="824" y1="263" x2="1134" y2="532" stroke="white" stroke-opacity="0.16" stroke-width="1"/><circle cx="267" cy="27" r="5" fill="white" fill-opacity="0.49"/><circle cx="593" cy="257" r="4" fill="white" fill-opacity="0.51"/><circle cx="212" cy="185" r="4" fill="white" fill-opacity="0.20"/><circle cx="442" cy="188" r="3" fill="white" fill-opacity="0.18"/><circle cx="910" cy="579" r="5" fill="white" fill-opacity="0.25"/><circle cx="862" cy="499" r="5" fill="white" fill-opacity="0.27"/><circle cx="546" cy="566" r="2" fill="white" fill-opacity="0.40"/><circle cx="1162" cy="283" r="5" fill="white" fill-opacity="0.40"/><circle cx="602" cy="173" r="4" fill="white" fill-opacity="0.53"/><circle cx="602" cy="265" r="5" fill="white" fill-opacity="0.30"/><circle cx="1059" cy="482" r="2" fill="white" fill-opacity="0.27"/><circle cx="995" cy="423" r="5" fill="white" fill-opacity="0.53"/><circle cx="501" cy="403" r="4" fill="white" fill-opacity="0.32"/><circle cx="62" cy="507" r="3" fill="white" fill-opacity="0.25"/><circle cx="651" cy="616" r="3" fill="white" fill-opacity="0.27"/><circle cx="642" cy="337" r="3" fill="white" fill-opacity="0.58"/><circle cx="446" cy="271" r="3" fill="white" fill-opacity="0.39"/><circle cx="824" cy="263" r="5" fill="white" fill-opacity="0.37"/><circle cx="280" cy="382" r="5" fill="white" fill-opacity="0.47"/><circle cx="392" cy="534" r="3" fill="white" fill-opacity="0.29"/><circle cx="39" cy="95" r="4" fill="white" fill-opacity="0.47"/><circle cx="903" cy="394" r="5" fill="white" fill-opacity="0.50"/><circle cx="215" cy="599" r="4" fill="white" fill-opacity="0.28"/><circle cx="1134" cy="532" r="4" fill="white" fill-opacity="0.52"/><circle cx="511" cy="645" r="3" fill="white" fill-opacity="0.47"/><circle cx="952" cy="510" r="5" fill="white" fill-opacity="0.39"/><rect x="80" y="452" width="26" height="113" rx="6" fill="white" fill-opacity="0.14"/><rect x="126" y="378" width="26" height="187" rx="6" fill="white" fill-opacity="0.21"/><rect x="172" y="433" width="26" height="132" rx="6" fill="white" fill-opacity="0.28"/><rect x="218" y="514" width="26" height="51" rx="6" fill="white" fill-opacity="0.35"/><rect x="264" y="394" width="26" height="171" rx="6" fill="white" fill-opacity="0.42"/>
  <text x="80" y="613" font-family="system-ui, sans-serif" font-size="30" font-weight="700" fill="white" fill-opacity="0.92">HYASCKA</text>
</svg>